<svg xmlns="http://www.w3.org/2000/svg" xmlns:xlink="http://www.w3.org/1999/xlink" version="1.1" x="0px" y="0px" viewBox="0 0 100 125" enable-background="new 0 0 100 100" xml:space="preserve" width="15" height="17"><g><rect x="9.5" y="7.5" fill="none" stroke="#000000" stroke-width="4" stroke-linecap="round" stroke-linejoin="round" stroke-miterlimit="10" width="75.461" height="85"/><g><circle fill="none" stroke="#000000" stroke-width="4" stroke-linecap="round" stroke-linejoin="round" stroke-miterlimit="10" cx="22.594" cy="37.671" r="3.807"/><line fill="none" stroke="#000000" stroke-width="4" stroke-linecap="round" stroke-linejoin="round" stroke-miterlimit="10" x1="22.594" y1="37.67" x2="8.098" y2="37.67"/><path fill="none" stroke="#000000" stroke-width="4" stroke-linecap="round" stroke-linejoin="round" stroke-miterlimit="10" d="    M10.904,37.337c0,0.664-0.538,1.202-1.202,1.202H8.366c-0.664,0-1.202-0.538-1.202-1.202l0,0c0-0.664,0.538-1.202,1.202-1.202    h1.336C10.366,36.134,10.904,36.672,10.904,37.337L10.904,37.337z"/></g><g><circle fill="none" stroke="#000000" stroke-width="4" stroke-linecap="round" stroke-linejoin="round" stroke-miterlimit="10" cx="22.594" cy="51.657" r="3.807"/><line fill="none" stroke="#000000" stroke-width="4" stroke-linecap="round" stroke-linejoin="round" stroke-miterlimit="10" x1="22.594" y1="51.657" x2="8.098" y2="51.657"/><path fill="none" stroke="#000000" stroke-width="4" stroke-linecap="round" stroke-linejoin="round" stroke-miterlimit="10" d="    M10.904,51.323c0,0.664-0.538,1.202-1.202,1.202H8.366c-0.664,0-1.202-0.538-1.202-1.202l0,0c0-0.664,0.538-1.202,1.202-1.202    h1.336C10.366,50.12,10.904,50.659,10.904,51.323L10.904,51.323z"/></g><g><circle fill="none" stroke="#000000" stroke-width="4" stroke-linecap="round" stroke-linejoin="round" stroke-miterlimit="10" cx="22.594" cy="65.643" r="3.807"/><line fill="none" stroke="#000000" stroke-width="4" stroke-linecap="round" stroke-linejoin="round" stroke-miterlimit="10" x1="22.594" y1="65.643" x2="8.098" y2="65.643"/><path fill="none" stroke="#000000" stroke-width="4" stroke-linecap="round" stroke-linejoin="round" stroke-miterlimit="10" d="    M10.904,65.309c0,0.664-0.538,1.202-1.202,1.202H8.366c-0.664,0-1.202-0.538-1.202-1.202l0,0c0-0.664,0.538-1.202,1.202-1.202    h1.336C10.366,64.106,10.904,64.645,10.904,65.309L10.904,65.309z"/></g><g><circle fill="none" stroke="#000000" stroke-width="4" stroke-linecap="round" stroke-linejoin="round" stroke-miterlimit="10" cx="22.594" cy="80.365" r="3.807"/><line fill="none" stroke="#000000" stroke-width="4" stroke-linecap="round" stroke-linejoin="round" stroke-miterlimit="10" x1="22.594" y1="80.365" x2="8.098" y2="80.365"/><path fill="none" stroke="#000000" stroke-width="4" stroke-linecap="round" stroke-linejoin="round" stroke-miterlimit="10" d="    M10.904,80.031c0,0.664-0.538,1.202-1.202,1.202H8.366c-0.664,0-1.202-0.538-1.202-1.202l0,0c0-0.664,0.538-1.202,1.202-1.202    h1.336C10.366,78.829,10.904,79.367,10.904,80.031L10.904,80.031z"/></g><line fill="none" stroke="#000000" stroke-width="7" stroke-linecap="round" stroke-linejoin="round" stroke-miterlimit="10" x1="82.772" y1="9.097" x2="82.772" y2="90.674"/><rect x="40.626" y="16.445" fill="none" stroke="#000000" stroke-width="3" stroke-linecap="round" stroke-linejoin="round" stroke-miterlimit="10" width="32.305" height="10.526"/><g><circle fill="none" stroke="#000000" stroke-width="4" stroke-linecap="round" stroke-linejoin="round" stroke-miterlimit="10" cx="22.594" cy="21.671" r="3.807"/><line fill="none" stroke="#000000" stroke-width="4" stroke-linecap="round" stroke-linejoin="round" stroke-miterlimit="10" x1="22.594" y1="21.67" x2="8.098" y2="21.67"/><path fill="none" stroke="#000000" stroke-width="4" stroke-linecap="round" stroke-linejoin="round" stroke-miterlimit="10" d="    M10.904,21.337c0,0.664-0.538,1.202-1.202,1.202H8.366c-0.664,0-1.202-0.538-1.202-1.202l0,0c0-0.664,0.538-1.202,1.202-1.202    h1.336C10.366,20.134,10.904,20.672,10.904,21.337L10.904,21.337z"/></g><line fill="none" stroke="#000000" stroke-width="3" stroke-linecap="round" stroke-linejoin="round" stroke-miterlimit="10" x1="42.718" y1="36.046" x2="70.304" y2="36.046"/><line fill="none" stroke="#000000" stroke-width="3" stroke-linecap="round" stroke-linejoin="round" stroke-miterlimit="10" x1="42.718" y1="44.046" x2="70.304" y2="44.046"/><line fill="none" stroke="#000000" stroke-width="3" stroke-linecap="round" stroke-linejoin="round" stroke-miterlimit="10" x1="42.718" y1="52.046" x2="70.304" y2="52.046"/></g></svg>
