<svg xmlns="http://www.w3.org/2000/svg" xmlns:xlink="http://www.w3.org/1999/xlink" version="1.1" x="0px" y="0px" viewBox="0 0 66 82.5" style="enable-background:new 0 0 66 66;" xml:space="preserve" width="15" height="17"><g><path d="M24.1,9.1h20.4c0.6,0,1-0.4,1-1s-0.4-1-1-1H24.1c-0.6,0-1,0.4-1,1S23.6,9.1,24.1,9.1z"/><path d="M18.9,15h25.6c0.6,0,1-0.4,1-1s-0.4-1-1-1H18.9c-0.6,0-1,0.4-1,1S18.4,15,18.9,15z"/><path d="M56.2,47.1c4-5.4,3.6-12.7-0.7-17.6c-0.9-1-1.9-1.9-3-2.6V3.8c0-1.5-1.2-2.8-2.8-2.8C9.9,1,11.8,0.9,11.4,1.3   C0.9,11.7,1,11.5,1,12.1v50.1C1,63.8,2.2,65,3.7,65h45.9c1.5,0,2.8-1.2,2.8-2.8V52.1c1.9,3.1,4.3,6.6,5,7.4   c2.4,2.7,6.4,1.4,7.4-1.6c0.5-1.4,0.2-2.9-0.9-4.1C63.1,52.9,59.3,49.4,56.2,47.1z M54,30.8c5,5.6,3.6,14.5-3,18.4   c-4.8,2.8-11.2,1.9-15.1-2.5c-4.4-5-3.9-12.6,1.1-17C42,25.3,49.6,25.8,54,30.8z M23.3,32.2V21.4h5.8v10.8c0,0.2,0,0.3,0.1,0.5   l1.9,3.4c-0.4,2.1-0.3,4.2,0.2,6.1H17.9l5.2-9.5C23.3,32.5,23.3,32.4,23.3,32.2z M16.8,44.2H32c0.6,1.4,1.4,2.6,2.4,3.8   c1.5,1.7,3.6,3.1,5.4,3.8c0.2,0.5,1.8,2.2,0.5,4.3c-0.6,1-1.7,1.6-2.9,1.6H15c-2.5,0-4.1-2.7-2.9-4.9L16.8,44.2z M11.1,4.4v6.7H4.4   L11.1,4.4z M49.7,63H3.7C3.3,63,3,62.7,3,62.2V13.1h9.1c0.6,0,1-0.4,1-1V3h36.6c0.4,0,0.8,0.3,0.8,0.8v22c-5-2.1-10.7-1.2-14.8,2.3   c-1.7,1.5-2.9,3.2-3.7,5.2l-0.8-1.5V21.4h1.6c0.6,0,1-0.4,1-1s-0.4-1-1-1c-16,0,2.6,0-13.1,0c-0.6,0-1,0.4-1,1s0.4,1,1,1h1.6v10.5   L10.4,51.8c-2,3.6,0.6,7.9,4.6,7.9h22.4c3.8,0,6.3-3.8,5-7.2c2.8,0.5,5.6,0.2,8-0.9v10.6C50.5,62.7,50.1,63,49.7,63z M62.9,57.3   c-0.5,1.5-2.6,2.5-4,0.9c-0.7-0.8-3.6-5-5.5-8.3c0.5-0.4,1-0.8,1.4-1.2c3.1,2.3,6.9,5.8,7.6,6.5C63.1,56,63.1,56.8,62.9,57.3z"/><path d="M19,55.7c1.7,0,3.1-1.4,3.1-3.1c0-1.7-1.4-3.1-3.1-3.1s-3.1,1.4-3.1,3.1C15.9,54.3,17.3,55.7,19,55.7z M19,51.5   c0.6,0,1.1,0.5,1.1,1.1s-0.5,1.1-1.1,1.1s-1.1-0.5-1.1-1.1S18.4,51.5,19,51.5z"/><path d="M29.3,52.8c1.7,0,3.1-1.4,3.1-3.1s-1.4-3.1-3.1-3.1c-1.7,0-3.1,1.4-3.1,3.1S27.6,52.8,29.3,52.8z M29.3,48.5   c0.6,0,1.1,0.5,1.1,1.1s-0.5,1.1-1.1,1.1s-1.1-0.5-1.1-1.1S28.7,48.5,29.3,48.5z"/></g></svg>
